<?xml version="1.0" encoding="UTF-8" standalone="no"?>
<svg xmlns:dc="http://purl.org/dc/elements/1.1/" xmlns:cc="http://creativecommons.org/ns#"
  xmlns:rdf="http://www.w3.org/1999/02/22-rdf-syntax-ns#" xmlns:svg="http://www.w3.org/2000/svg"
  xmlns="http://www.w3.org/2000/svg" xmlns:sodipodi="http://sodipodi.sourceforge.net/DTD/sodipodi-0.dtd"
  xmlns:inkscape="http://www.inkscape.org/namespaces/inkscape" version="1.1" id="svg2" xml:space="preserve"
  width="1718.7467" height="334.62668" viewBox="0 0 1718.7467 334.62668" sodipodi:docname="Logo_green.eps">
  <metadata id="metadata8">
    <rdf:RDF>
      <cc:Work rdf:about="">
        <dc:format>image/svg+xml</dc:format>
        <dc:type rdf:resource="http://purl.org/dc/dcmitype/StillImage" />
      </cc:Work>
    </rdf:RDF>
  </metadata>
  <defs id="defs6" />
  <sodipodi:namedview pagecolor="#ffffff" bordercolor="#666666" borderopacity="1" objecttolerance="10"
    gridtolerance="10" guidetolerance="10" inkscape:pageopacity="0" inkscape:pageshadow="2" inkscape:window-width="640"
    inkscape:window-height="480" id="namedview4" />
  <g id="g10" inkscape:groupmode="layer" inkscape:label="ink_ext_XXXXXX"
    transform="matrix(1.3333333,0,0,-1.3333333,0,334.62667)">
    <g id="g12" transform="scale(0.1)">
      <path
        d="M 1327.14,575.352 H 658.719 v 457.608 h 668.421 c 173.36,0 266.97,-97.069 266.97,-225.351 0,-128.257 -93.61,-232.257 -266.97,-232.257 z M 658.719,1934.38 h 599.091 c 152.54,0 242.69,-65.86 242.69,-211.48 0,-128.27 -90.15,-204.56 -242.69,-204.56 H 658.719 Z M 1829.86,1303.4 c 214.94,69.34 353.62,263.49 353.62,502.71 0,388.3 -298.15,644.86 -832.07,644.86 L 0,2450.97 V 58.75 h 1365.29 c 578.98,0 922.21,273.898 922.21,714.199 0,249.641 -180.28,457.641 -457.64,530.451"
        style="fill:#040606;fill-opacity:1;fill-rule:nonzero;stroke:none" id="path14" />
      <path d="m 2507.64,58.75 h 680.61 V 2450.97 H 2507.64 V 58.75"
        style="fill:#040606;fill-opacity:1;fill-rule:nonzero;stroke:none" id="path16" />
      <path
        d="m 8938.94,967.109 62.41,201.081 c 76.26,239.21 138.66,429.9 187.2,620.59 h 21.21 c 45.07,-190.69 100.54,-381.38 176.8,-620.59 l 62.4,-201.081 z M 8786.7,2450.97 7947.69,58.75 h 706.96 l 104,336.301 h 874.07 L 9740.2,58.75 h 752.3 L 9653.54,2450.97 H 8786.7"
        style="fill:#040606;fill-opacity:1;fill-rule:nonzero;stroke:none" id="path18" />
      <path
        d="m 11597.4,665.469 h -298.1 V 1844.25 h 298.1 c 371,0 561.7,-263.49 561.7,-589.38 0,-322.44 -190.7,-589.401 -561.7,-589.401 z m 10.4,1785.501 h -984.6 V 58.75 h 984.6 c 794,0 1282.8,540.852 1282.8,1196.12 0,658.72 -488.8,1196.1 -1282.8,1196.1"
        style="fill:#040606;fill-opacity:1;fill-rule:nonzero;stroke:none" id="path20" />
      <path
        d="m 6397.74,1618.27 c 123.62,149.2 316.89,248.85 503.38,248.85 219.12,0 383.73,-86.69 584,-264.29 l 46.06,-42.02 355.23,504.53 -17.71,19.43 c -246.27,270.06 -598.96,424.96 -967.58,424.96 -425.16,0 -822.3,-245.99 -1011.35,-474.54 -139.96,-169.18 -244.71,-371.21 -355.61,-585.1 -190.17,-366.68 -340.54,-628.059 -555.97,-742.61 l -0.31,-0.519 -0.32,0.187 c -79.58,-42.187 -167.98,-64.527 -270.62,-64.527 -168.28,0 -326.51,63.68 -445.5,179.328 -119.02,115.633 -184.55,269.371 -184.55,432.921 0,337.59 282.65,612.25 630.05,612.25 240.4,0 434.59,-93.69 577.22,-278.5 l 7.39,-9.57 325.54,563.86 c -242.12,233.57 -569.42,366.82 -910.15,366.82 -712.05,0 -1291.36,-562.93 -1291.36,-1254.86 C 3415.58,562.93 3994.89,0 4706.94,0 c 815.76,0 1163.72,670.98 1418.05,1161.47 94.71,182.55 176.58,340.73 272.75,456.8"
        style="fill:#4bbf76;fill-opacity:1;fill-rule:nonzero;stroke:none" id="path22" />
      <path
        d="M 7549.28,997.93 C 7411.36,783.211 7173.87,641.332 6903.84,641.332 c -2.46,0 -4.88,0.156 -7.34,0.18 -1.87,-0.024 -3.84,-0.18 -5.69,-0.18 -120.47,0 -233.71,29.289 -336.8,85.777 -93.41,48.672 -175.57,116.379 -242.18,197.86 L 5990.2,367.879 C 6227.54,134.871 6548.82,2.58203 6890.81,2.58203 c 382.16,0 740.36,164.57797 982.81,451.53897 l 90.17,98.078 -414.51,445.731"
        style="fill:#4bbf76;fill-opacity:1;fill-rule:nonzero;stroke:none" id="path24" />
    </g>
  </g>
</svg>