<svg xmlns="http://www.w3.org/2000/svg" height="100%" viewBox="0 0 688.875 195.448">
  <path id="Union_6" data-name="Union 6" d="M365.318,195.432a59.875,59.875,0,0,1-22.681-3.983,35.579,35.579,0,0,1-15.345-11.385,33.055,33.055,0,0,1-6.5-16.722l-.133-1.241h19.84l.163.908a14.493,14.493,0,0,0,7.532,10.366,32.091,32.091,0,0,0,16.192,3.774h1.875c8.052,0,14.5-2.389,19.155-7.118,4.643-4.712,7-12.071,7-21.864V135.635s-8.767,11.76-28.293,11.76c-27.335,0-43.458-21.56-43.458-50.963s15.62-50.965,42.955-50.965c19.527,0,29.288,11.761,29.288,11.761v-9.8h19.527v88.208h-.12v14.539a48.156,48.156,0,0,1-5.583,23.234,39.978,39.978,0,0,1-16.267,16.178,51.534,51.534,0,0,1-23.865,5.861Q365.955,195.448,365.318,195.432Zm-25.138-99c0,21.561,9.763,33.322,25.383,33.322s27.335-9.8,27.335-33.322-11.714-33.323-27.335-33.323S340.18,74.869,340.18,96.432ZM591.849,195.4,611.9,135.857l-30.4-87.9h21.891l28.46,82.28,27.661-82.28H681.2l-29.745,87.9H633.473L613.326,195.4ZM248.857,141.9a43.329,43.329,0,0,1-17.008-17.517c-4.24-7.724-6.4-17.317-6.4-28.137s2.143-20.2,6.4-27.845a43.426,43.426,0,0,1,17.008-17.41,45.211,45.211,0,0,1,22.595-5.823,43.95,43.95,0,0,1,22.137,5.456,37.318,37.318,0,0,1,14.7,15.4,48.657,48.657,0,0,1,5.143,22.7v11.693H245.994a37.936,37.936,0,0,0,4.423,15.968,27.056,27.056,0,0,0,9.737,10.329,23.066,23.066,0,0,0,11.711,3.417h1.546a22.5,22.5,0,0,0,12.721-3.677,15.214,15.214,0,0,0,6.674-10.5l-.061-.014.168-.874h20.5l-.214,1.256a34.877,34.877,0,0,1-14.115,23.08c-7.609,5.517-16.7,8.321-27.05,8.321A47.452,47.452,0,0,1,248.857,141.9Zm-1.516-58.113H292.9c-.52-6.958-2.617-12.214-6.246-15.616a20.356,20.356,0,0,0-14.405-5.41H270.7a22.667,22.667,0,0,0-14.65,5.364h-.014C251.934,71.477,249.01,76.733,247.341,83.783ZM0,147.442l31.949-87.9L10.869,0h22.58L54.636,59.538l-31.627,87.9Zm533.109-1.653V65.071H511.892V47.094h21.217V29.823c0-7.08,1.837-12.475,5.435-16.016s8.941-5.333,15.89-5.333H582.51V26.651H560.221c-2.526,0-4.288.46-5.236,1.348-.918.874-1.408,2.7-1.408,5.3V47.094h24.111V65.071H553.577v80.717Zm-111.326,0V47.094h19.5V63.278a28.984,28.984,0,0,1,8.787-11.142,29.3,29.3,0,0,1,18.11-6.007h9.752V66.036h-8.787c-8.39,0-15.034,2.636-19.749,7.847-4.746,5.256-7.149,12.643-7.149,21.976v49.929Zm-223.6,0c-6.951,0-12.462-1.993-16.382-5.917s-5.908-9.44-5.908-16.4v-58.4H154.678V47.094H175.9V15.816h20.468V47.094h23.146V65.071H196.363v55.507c0,2.529.474,4.276,1.424,5.225s2.695,1.426,5.22,1.426h19.4v18.559Zm-66.24,0V83.89A30.377,30.377,0,0,0,130,72.427a14.887,14.887,0,0,0-5.94-7.125,19.774,19.774,0,0,0-10.533-2.544h-1.547A24.357,24.357,0,0,0,99.6,66.083a25.031,25.031,0,0,0-9.247,9.639,30.27,30.27,0,0,0-3.536,14.926v55.139H66.348V47.1H86.815v11.34a36.53,36.53,0,0,1,10.762-8.98c5.144-2.851,11.558-4.291,19.029-4.291s13.961,1.44,19.3,4.276h.015a29.165,29.165,0,0,1,12.307,12.229,38.711,38.711,0,0,1,4.18,18.359v65.76Zm352.5,0V47.094h20.468v98.693Zm182.92-17.608A10.755,10.755,0,1,1,678.1,138.86,10.623,10.623,0,0,1,667.365,128.179Zm2.649,0a8.105,8.105,0,1,0,8.113-8.138A8.009,8.009,0,0,0,670.014,128.179Zm8.343,5.257a4.79,4.79,0,0,1-2.526-.659,4.43,4.43,0,0,1-1.7-1.855,6,6,0,0,1-.612-2.727,5.822,5.822,0,0,1,.612-2.728,4.424,4.424,0,0,1,1.7-1.855,4.782,4.782,0,0,1,2.526-.66,5.162,5.162,0,0,1,2.189.43,3.4,3.4,0,0,1,1.5,1.241,3.966,3.966,0,0,1,.659,1.992h-2.326a2.152,2.152,0,0,0-.628-1.287,1.833,1.833,0,0,0-1.316-.474h-.169a2.082,2.082,0,0,0-1.378.459,2.735,2.735,0,0,0-.811,1.211,5.339,5.339,0,0,0-.26,1.687,4.338,4.338,0,0,0,.612,2.39,2.034,2.034,0,0,0,1.822.965h.168a1.833,1.833,0,0,0,1.317-.474,2.142,2.142,0,0,0,.627-1.287h2.326a3.658,3.658,0,0,1-1.3,2.712,4.708,4.708,0,0,1-3.062.935ZM483.48,31.861V8.475h22.4V31.861Z" fill="CurrentColor"></path>
</svg>