<svg width="421" height="200" viewBox="0 0 421 200" fill="none" xmlns="http://www.w3.org/2000/svg">
<path d="M223.904 50.6067L201.324 55.4607V37.1236L223.904 32.3596V50.6067Z" fill="#635BFF"/>
<path fill-rule="evenodd" clip-rule="evenodd" d="M270.861 60.7641C262.046 60.7641 256.378 64.8989 253.23 67.7753L252.06 62.2023H232.27V167.011L254.759 162.247L254.849 136.809C258.087 139.146 262.855 142.472 270.771 142.472C286.874 142.472 301.537 129.528 301.537 101.034C301.447 74.9663 286.604 60.7641 270.861 60.7641ZM265.464 122.697C260.156 122.697 257.008 120.809 254.849 118.472L254.759 85.1236C257.098 82.5169 260.336 80.7191 265.464 80.7191C273.65 80.7191 279.317 89.8876 279.317 101.663C279.317 113.708 273.74 122.697 265.464 122.697Z" fill="#635BFF"/>
<path fill-rule="evenodd" clip-rule="evenodd" d="M372.423 101.933C372.423 78.9214 361.268 60.7641 339.949 60.7641C318.539 60.7641 305.585 78.9214 305.585 101.753C305.585 128.809 320.878 142.472 342.827 142.472C353.532 142.472 361.628 140.045 367.745 136.629V118.652C361.628 121.708 354.612 123.596 345.706 123.596C336.98 123.596 329.244 120.539 328.254 109.933H372.243C372.243 109.438 372.275 108.313 372.313 107.018L372.313 107.016V107.014L372.313 107.012L372.313 107.01L372.313 107.007C372.364 105.247 372.423 103.173 372.423 101.933ZM327.984 93.3933C327.984 83.236 334.191 79.0112 339.859 79.0112C345.346 79.0112 351.193 83.236 351.193 93.3933H327.984Z" fill="#635BFF"/>
<path d="M223.904 62.2921H201.324V140.944H223.904V62.2921Z" fill="#635BFF"/>
<path d="M175.687 62.2922L177.126 68.9438C182.433 59.236 192.958 61.2135 195.837 62.2922V82.9663C193.048 81.9775 184.053 80.7191 178.745 87.6405V140.944H156.256V62.2922H175.687Z" fill="#635BFF"/>
<path d="M132.147 42.7865L110.198 47.4607L110.108 119.461C110.108 132.764 120.093 142.562 133.407 142.562C140.783 142.562 146.181 141.213 149.149 139.596V121.348C146.271 122.517 132.057 126.652 132.057 113.348V81.4382H149.149V62.2921H132.057L132.147 42.7865Z" fill="#635BFF"/>
<path d="M78.9825 80.2697C74.2147 80.2697 71.3361 81.618 71.3361 85.1236C71.3361 88.9512 76.2903 90.6349 82.4365 92.7237C92.4562 96.129 105.644 100.611 105.7 117.213C105.7 133.303 92.8359 142.562 74.1248 142.562C66.3885 142.562 57.9325 141.034 49.5664 137.438V116.045C57.1229 120.18 66.6583 123.236 74.1248 123.236C79.1624 123.236 82.7607 121.888 82.7607 117.753C82.7607 113.513 77.3903 111.575 70.9067 109.236C61.0327 105.673 48.5769 101.178 48.5769 86.2023C48.5769 70.2921 60.7212 60.7641 78.9825 60.7641C86.4489 60.7641 93.8254 61.9326 101.292 64.8989V86.0225C94.4551 82.3371 85.8192 80.2697 78.9825 80.2697Z" fill="#635BFF"/>
</svg>
